HIERARCHY
ROOT Hips
{
	OFFSET 0.000000 0.000000 0.000000 
	CHANNELS 6 Xposition Yposition Zposition Zrotation Yrotation Xrotation
	JOINT LeftUpLeg
	{
		OFFSET 1.363060 -1.794630 0.839290 
		CHANNELS 3 Zrotation Yrotation Xrotation
		JOINT LeftLeg
		{
			OFFSET 2.448110 -6.726130 0.000000 
			CHANNELS 3 Zrotation Yrotation Xrotation
			JOINT LeftFoot
			{
				OFFSET 2.562200 -7.039590 0.000000 
				CHANNELS 3 Zrotation Yrotation Xrotation
				JOINT LeftToeBase
				{
					OFFSET 0.157640 -0.433110 2.322550 
					CHANNELS 3 Zrotation Yrotation Xrotation
					End Site
					{
						OFFSET 0.000000 0.000000 0.000000 
					}
				}
			}
		}
	}
	JOINT RightUpLeg
	{
		OFFSET -1.305520 -1.794630 0.839290 
		CHANNELS 3 Zrotation Yrotation Xrotation
		JOINT RightLeg
		{
			OFFSET -2.542530 -6.985550 0.000000 
			CHANNELS 3 Zrotation Yrotation Xrotation
			JOINT RightFoot
			{
				OFFSET -2.568260 -7.056230 0.000000 
				CHANNELS 3 Zrotation Yrotation Xrotation
				JOINT RightToeBase
				{
					OFFSET -0.164730 -0.452590 2.363150 
					CHANNELS 3 Zrotation Yrotation Xrotation
					End Site
					{
						OFFSET 0.000000 0.000000 0.000000 
					}
				}
			}
		}
	}
	JOINT Spine
	{
		OFFSET 0.028270 2.035590 -0.193380 
		CHANNELS 3 Zrotation Yrotation Xrotation
		JOINT Spine1
		{
			OFFSET 0.056720 2.048850 -0.042750 
			CHANNELS 3 Zrotation Yrotation Xrotation
			JOINT Neck1
			{
				OFFSET -0.054170 1.746240 0.172020 
				CHANNELS 3 Zrotation Yrotation Xrotation
				JOINT Head
				{
					OFFSET 0.104070 1.761360 -0.123970 
					CHANNELS 3 Zrotation Yrotation Xrotation
					End Site
					{
						OFFSET 0.000000 0.000000 0.000000 
					}
				}
			}
			JOINT LeftArm
			{
				OFFSET 3.362410 1.200890 -0.311210 
				CHANNELS 3 Zrotation Yrotation Xrotation
				JOINT LeftForeArm
				{
					OFFSET 4.983000 -0.000000 -0.000000 
					CHANNELS 3 Zrotation Yrotation Xrotation
					JOINT LeftHand
					{
						OFFSET 3.483560 -0.000000 -0.000000 
						CHANNELS 3 Zrotation Yrotation Xrotation
						JOINT LeftHandIndex1
						{
							OFFSET 0.715260 -0.000000 -0.000000 
							CHANNELS 3 Zrotation Yrotation Xrotation
							End Site
							{
								OFFSET 0.000000 0.000000 0.000000 
							}
						}
					}
				}
			}
			JOINT RightArm
			{
				OFFSET -3.136600 1.374050 -0.404650 
				CHANNELS 3 Zrotation Yrotation Xrotation
				JOINT RightForeArm
				{
					OFFSET -5.241900 -0.000000 -0.000000 
					CHANNELS 3 Zrotation Yrotation Xrotation
					JOINT RightHand
					{
						OFFSET -3.444170 -0.000000 -0.000000 
						CHANNELS 3 Zrotation Yrotation Xrotation
						JOINT RightHandIndex1
						{
							OFFSET -0.622530 -0.000000 -0.000000 
							CHANNELS 3 Zrotation Yrotation Xrotation
							End Site
							{
								OFFSET 0.000000 0.000000 0.000000 
							}
						}
					}
				}
			}
		}
	}
}
MOTION
Frames: 7
Frame Time: 0.041667
-1.300098 18.404941 22.053943 177.363843 1.727769 -153.659036 -50.326024 -19.253438 -17.611007 2.686167 4.108162 9.130349 -0.974355 -12.698287 -32.038469 5.841700 -14.273200 -44.343100 41.028458 33.778796 -26.051633 -2.874533 -8.678664 20.361348 -1.144843 7.481136 -38.432348 -0.554400 4.769700 -13.253000 2.135368 -0.844041 -1.368143 1.603932 -1.695322 15.381194 9.420765 -6.464814 44.129408 1.496400 0.109900 8.369200 -106.588694 -10.082195 19.140658 31.625838 -36.859763 -10.591182 -0.307994 -0.565658 -32.367614 -7.125000 0.000000 0.000000 99.796293 -9.136252 10.504111 -31.448230 41.513502 -11.368542 0.209221 -0.395371 21.734728 7.125000 0.000000 0.000000 
-1.318614 18.361092 22.064422 177.450532 1.380069 -151.126304 -49.172008 -21.867871 -21.032776 2.725391 4.717746 10.016642 -1.719221 -13.236262 -30.257602 3.667900 -11.704800 -34.695600 38.920414 34.759104 -29.843516 -2.750928 -9.150981 20.800686 -1.020071 7.299823 -38.398339 -0.615800 5.022100 -13.971600 2.122685 -1.054819 -2.374261 0.954181 -1.750498 16.295965 9.580017 -6.508133 43.875866 1.498200 0.108000 8.318700 -106.593942 -9.937365 21.116333 30.709181 -35.847309 -10.028949 -0.349133 -0.521036 -28.022658 -7.125000 0.000000 0.000000 99.610584 -8.218722 8.310304 -36.146813 45.169567 -14.170490 0.205099 -0.403415 -0.196345 7.125000 0.000000 0.000000 
-1.308033 18.355090 22.046008 177.736025 1.108594 -150.926500 -48.845926 -21.818972 -21.218557 2.839476 4.740768 10.049996 -2.418894 -14.053236 -28.361059 1.724900 -8.267800 -23.530500 39.419818 34.776377 -29.565134 -2.713291 -8.973288 20.367422 -0.911319 7.762553 -38.389181 -0.480800 4.446700 -12.336900 2.339289 -1.121369 -2.471363 0.859020 -1.843669 16.514076 9.612074 -6.590491 43.731466 1.467900 0.073600 8.269600 -106.719794 -9.613823 23.145350 29.839822 -34.870420 -9.527506 -0.394416 -0.474834 -23.341800 -7.125000 0.000000 0.000000 99.560118 -8.335602 8.892116 -35.936899 45.009184 -14.043054 0.181220 -0.386887 -2.295837 7.125000 0.000000 0.000000 
-1.302539 18.352546 22.030849 178.025895 0.939885 -150.681734 -48.489093 -21.869833 -21.468635 2.940010 4.778454 10.057412 -2.908333 -14.451432 -26.636281 0.382900 -3.974100 -11.003700 39.786054 34.845199 -29.562982 -2.676488 -8.902456 20.201248 -0.767232 8.272031 -38.304059 -0.402800 4.074700 -11.286900 2.487892 -1.062249 -2.533400 0.691431 -1.791674 16.817535 9.735524 -6.654151 43.365852 1.458700 0.042900 8.164000 -106.804555 -9.330112 25.424251 28.969490 -33.871448 -9.044400 -0.444280 -0.409420 -17.950582 -7.125000 0.000000 0.000000 99.674978 -8.362464 9.507000 -35.786511 44.906832 -13.969640 0.145521 -0.360062 -4.781245 7.125000 0.000000 0.000000 
-1.298877 18.347866 22.018030 178.522303 0.754749 -150.105971 -47.733588 -22.259226 -22.228223 3.079039 4.935671 10.230668 -3.438938 -14.658352 -24.247449 0.150800 2.502500 6.896700 40.162473 35.015524 -30.050149 -2.610007 -8.965710 20.115181 -0.899984 7.667656 -38.148924 -0.458200 4.342300 -12.041800 2.780770 -0.987082 -2.724414 0.434404 -1.711298 17.202626 9.793846 -6.748679 42.945324 1.437200 -0.028100 8.053200 -106.912288 -8.897475 28.609003 27.900677 -32.611913 -8.482572 -0.511229 -0.302566 -10.399881 -7.125000 0.000000 0.000000 99.807719 -8.413808 10.509814 -35.670786 44.826799 -13.925354 0.094352 -0.315672 -8.690866 7.125000 0.000000 0.000000 
-1.293383 18.345933 22.003685 178.945624 0.566611 -149.701456 -47.143606 -22.498844 -22.706686 3.217058 5.062882 10.381373 -3.862125 -14.752609 -21.948628 1.543500 7.842300 22.236200 40.653525 35.045482 -30.193254 -2.563487 -8.866959 19.782747 -0.727913 8.047102 -37.742512 -0.306300 3.558100 -9.836500 3.085112 -0.983509 -2.887798 0.230919 -1.672398 17.459613 9.707828 -6.763302 42.777348 1.405500 -0.060600 8.008500 -107.045021 -8.398420 31.124204 26.979368 -31.505654 -8.006853 -0.558318 -0.195279 -3.947486 -7.125000 0.000000 0.000000 99.796642 -8.357769 10.114857 -35.643860 44.796064 -13.887144 0.101525 -0.321541 -7.161703 7.125000 0.000000 0.000000 
-1.283413 18.341254 21.992697 178.824650 0.596189 -149.745729 -47.094113 -22.204192 -22.560289 2.847030 4.809719 9.939377 -1.918496 -13.231005 -29.720518 3.302200 -11.168900 -32.851600 40.625581 34.928504 -29.978761 -2.577264 -8.786766 19.491271 -0.930239 7.348085 -37.788033 -0.380200 3.959800 -10.963600 3.087679 -1.000556 -2.953293 0.346225 -1.703741 17.533783 9.684532 -6.650334 42.264984 1.386400 -0.038200 7.837400 -107.183064 -8.142076 31.461480 26.495324 -30.883682 -7.680194 -0.604033 -0.202016 -2.090159 -7.125000 0.000000 0.000000 99.772095 -8.293840 9.649317 -35.286554 44.512892 -13.628050 0.118392 -0.343064 -6.009159 7.125000 0.000000 0.000000 
